<mxfile host="65bd71144e">
    <diagram id="j8mKWiPFPsd4dTao6kFk" name="Page-1">
        <mxGraphModel dx="962" dy="1827" grid="1" gridSize="10" guides="1" tooltips="1" connect="1" arrows="1" fold="1" page="1" pageScale="1" pageWidth="827" pageHeight="1169" math="0" shadow="0">
            <root>
                <mxCell id="0"/>
                <mxCell id="1" parent="0"/>
                <mxCell id="3" value="ADMIN" style="pointerEvents=1;shadow=0;dashed=0;html=1;strokeColor=none;aspect=fixed;labelPosition=center;verticalLabelPosition=bottom;verticalAlign=top;align=center;outlineConnect=0;shape=mxgraph.vvd.administrator;fillColor=#066A90;" parent="1" vertex="1">
                    <mxGeometry x="30" y="30" width="21.5" height="50" as="geometry"/>
                </mxCell>
                <mxCell id="4" value="FORMATEUR" style="pointerEvents=1;shadow=0;dashed=0;html=1;strokeColor=none;aspect=fixed;labelPosition=center;verticalLabelPosition=bottom;verticalAlign=top;align=center;outlineConnect=0;shape=mxgraph.vvd.administrator;fillColor=#65B245;" parent="1" vertex="1">
                    <mxGeometry x="30" y="500" width="21.5" height="50" as="geometry"/>
                </mxCell>
                <mxCell id="6" value="" style="endArrow=none;html=1;" parent="1" edge="1">
                    <mxGeometry width="50" height="50" relative="1" as="geometry">
                        <mxPoint x="80" y="680" as="sourcePoint"/>
                        <mxPoint x="80" as="targetPoint"/>
                    </mxGeometry>
                </mxCell>
                <mxCell id="7" value="CRUD Formateur" style="swimlane;" parent="1" vertex="1">
                    <mxGeometry x="160" y="80" width="200" height="200" as="geometry"/>
                </mxCell>
                <mxCell id="8" value="CRUD Formation" style="swimlane;" parent="1" vertex="1">
                    <mxGeometry x="400" y="80" width="200" height="200" as="geometry"/>
                </mxCell>
                <mxCell id="9" value="" style="endArrow=none;html=1;" parent="1" edge="1">
                    <mxGeometry width="50" height="50" relative="1" as="geometry">
                        <mxPoint x="720" y="680" as="sourcePoint"/>
                        <mxPoint x="720" as="targetPoint"/>
                    </mxGeometry>
                </mxCell>
                <mxCell id="10" value="CRUD Session" style="swimlane;" parent="1" vertex="1">
                    <mxGeometry x="160" y="440" width="200" height="200" as="geometry"/>
                </mxCell>
                <mxCell id="11" value="SORTIES" style="swimlane;" parent="1" vertex="1">
                    <mxGeometry x="770" y="440" width="200" height="200" as="geometry"/>
                </mxCell>
                <mxCell id="12" value="" style="endArrow=none;html=1;" parent="1" edge="1">
                    <mxGeometry width="50" height="50" relative="1" as="geometry">
                        <mxPoint x="80" as="sourcePoint"/>
                        <mxPoint x="720" as="targetPoint"/>
                    </mxGeometry>
                </mxCell>
                <mxCell id="13" value="&lt;h1&gt;CRM JURES&lt;/h1&gt;&lt;div&gt;DWWM-4&lt;/div&gt;&lt;div&gt;2021-2022&lt;/div&gt;&lt;div&gt;Louis URBANI&lt;/div&gt;&lt;div&gt;Amandine PIMENTEL DE ANDREDAD&lt;/div&gt;" style="text;html=1;strokeColor=none;fillColor=none;spacing=5;spacingTop=-20;whiteSpace=wrap;overflow=hidden;rounded=0;align=left;" parent="1" vertex="1">
                    <mxGeometry x="80" y="-120" width="230" height="120" as="geometry"/>
                </mxCell>
                <mxCell id="14" value="&lt;font style=&quot;font-size: 20px&quot; face=&quot;Times New Roman&quot;&gt;&lt;b&gt;SI&lt;/b&gt;&lt;/font&gt;" style="text;html=1;strokeColor=none;fillColor=none;align=center;verticalAlign=middle;whiteSpace=wrap;rounded=0;" vertex="1" parent="1">
                    <mxGeometry x="100" y="20" width="40" height="20" as="geometry"/>
                </mxCell>
                <mxCell id="16" value="" style="endArrow=none;html=1;" edge="1" parent="1">
                    <mxGeometry width="50" height="50" relative="1" as="geometry">
                        <mxPoint x="80" y="680.0000000000002" as="sourcePoint"/>
                        <mxPoint x="720" y="680.0000000000002" as="targetPoint"/>
                    </mxGeometry>
                </mxCell>
            </root>
        </mxGraphModel>
    </diagram>
</mxfile>